# xmcd
#
# Track frame offsets: 
#        182
#        24792
#        49007
#        66337
#        88082
#        100532
#        117090
#        136132
#        164882
#        185965
#        205007
#        229232
#        260287
#        290732
#        306232
#
# Disc length: 4332 seconds
#
# Revision: 18
# Processed by: cddbd v1.5.2PL0 Copyright (c) Steve Scherf et al.
# Submitted via: ExactAudioCopyFreeDBPlugin 1.0
#
DISCID=d710ea0f
DTITLE=Donny Hathaway - A Donny Hathaway Collection
DYEAR=1990
DGENRE=Soul
TTITLE0=A Song for You
TTITLE1=I Love You More Than You'll Ever Know
TTITLE2=You Were Meant for Me
TTITLE3=Back Together Again (with Roberta Flack)
TTITLE4=Where is the Love (with Roberta Flack)
TTITLE5=For All We Know (with Roberta Flack)
TTITLE6=Someday We'll All Be Free
TTITLE7=Giving Up
TTITLE8=The Closer I Get to You (with Roberta Flack)
TTITLE9=You Are My Heaven (with Roberta Flack)
TTITLE10=What's Goin' On
TTITLE11=The Ghetto
TTITLE12=To Be Young, Gifted and Black
TTITLE13=You've Got a Friend (with Roberta Flack)
TTITLE14=This Christmas
EXTD=Entered By Slice!! In Detroit YEAR: 1990
EXTT0=
EXTT1=
EXTT2=
EXTT3=
EXTT4=
EXTT5=
EXTT6=
EXTT7=
EXTT8=
EXTT9=
EXTT10=
EXTT11=
EXTT12=
EXTT13=
EXTT14=
PLAYORDER=
